<svg width="1438" height="1293" viewBox="0 0 1438 1293" fill="none" xmlns="http://www.w3.org/2000/svg">
<path d="M52.202 1262.5C51.0746 1265.02 49.5775 1268.83 47.7182 1273.94H47.2649C46.6108 1271.38 45.2048 1267.65 43.0336 1262.76L14.4356 1197.76H0V1290.97H10.5286V1228.5C10.5286 1220.1 10.3597 1214.03 10.0105 1210.31H10.2695C11.2281 1214.68 12.1613 1217.87 13.062 1219.86L44.9263 1290.97H50.2586L82.0447 1219.34C82.8678 1217.47 83.8004 1214.46 84.8435 1210.31H85.1026C84.4933 1217.41 84.1894 1223.43 84.1894 1228.37V1290.97H95.1126V1197.76H81.3899L52.202 1262.5Z" fill="white"/>
<path d="M113.159 1290.97H123.83V1224.41H113.159V1290.97Z" fill="white"/>
<path d="M118.621 1193.66C116.709 1193.66 115.076 1194.33 113.71 1195.64C112.349 1196.96 111.662 1198.6 111.662 1200.55C111.662 1202.59 112.349 1204.26 113.71 1205.56C115.076 1206.85 116.709 1207.51 118.621 1207.51C120.565 1207.51 122.23 1206.84 123.598 1205.49C124.957 1204.15 125.639 1202.5 125.639 1200.55C125.639 1198.6 124.957 1196.96 123.598 1195.64C122.23 1194.33 120.565 1193.66 118.621 1193.66Z" fill="white"/>
<path d="M144.87 1232.86C138.611 1239.57 135.468 1248.39 135.468 1259.31C135.468 1269.02 138.339 1276.95 144.06 1283.11C149.904 1289.44 157.6 1292.59 167.131 1292.59C174.194 1292.59 180.291 1291.04 185.402 1287.92V1277.77C180.291 1281.59 174.828 1283.49 169.017 1283.49C162.129 1283.49 156.636 1281.24 152.541 1276.73C148.445 1272.23 146.398 1266.09 146.398 1258.34C146.398 1250.28 148.628 1243.83 153.092 1238.97C157.381 1234.24 162.907 1231.88 169.665 1231.88C175.302 1231.88 180.588 1233.62 185.532 1237.08V1226.16C181.074 1223.91 175.929 1222.78 170.118 1222.78C159.551 1222.78 151.129 1226.14 144.87 1232.86" fill="white"/>
<path d="M213.768 1226.88C210.517 1229.52 208.106 1233.26 206.552 1238.12H206.285V1224.41H195.62V1290.97H206.285V1257.04C206.285 1249.33 207.957 1243.29 211.294 1238.91C214.242 1235.01 217.884 1233.06 222.217 1233.06C225.768 1233.06 228.477 1233.77 230.343 1235.2V1224.15C228.91 1223.54 226.785 1223.24 223.966 1223.24C220.197 1223.24 216.801 1224.45 213.768 1226.88" fill="white"/>
<path d="M282.541 1276.67C278.854 1281.22 273.508 1283.49 266.485 1283.49C259.721 1283.49 254.324 1281.25 250.301 1276.76C246.265 1272.28 244.249 1266.06 244.249 1258.08C244.249 1249.59 246.348 1243.02 250.559 1238.39C254.545 1234.05 259.851 1231.88 266.485 1231.88C273.204 1231.88 278.42 1234.03 282.152 1238.32C286.007 1242.78 287.938 1249.28 287.938 1257.82C287.938 1265.97 286.136 1272.25 282.541 1276.67V1276.67ZM267.27 1222.78C257.162 1222.78 249.101 1225.73 243.083 1231.62C236.578 1237.95 233.331 1246.91 233.331 1258.47C233.331 1268.61 236.19 1276.78 241.91 1282.98C247.761 1289.38 255.692 1292.6 265.702 1292.6C275.842 1292.6 283.908 1289.38 289.888 1282.98C295.867 1276.56 298.855 1268.04 298.855 1257.43C298.855 1246.64 296.075 1238.17 290.503 1232.02C284.932 1225.86 277.183 1222.78 267.27 1222.78" fill="white"/>
<path d="M330.217 1253.6C325.15 1251.42 321.813 1249.59 320.213 1248.07C318.424 1246.42 317.544 1244.13 317.544 1241.18C317.544 1238.44 318.6 1236.22 320.732 1234.48C322.85 1232.76 325.694 1231.88 329.245 1231.88C334.928 1231.88 339.949 1233.47 344.329 1236.63V1225.9C340.123 1223.82 335.381 1222.78 330.095 1222.78C323.199 1222.78 317.563 1224.61 313.191 1228.27C308.811 1231.94 306.619 1236.54 306.619 1242.08C306.619 1247.03 308.026 1251.04 310.845 1254.11C313.191 1256.71 317.155 1259.23 322.746 1261.66C328.157 1264.04 331.804 1266.07 333.669 1267.76C335.53 1269.46 336.463 1271.6 336.463 1274.2C336.463 1280.4 332.231 1283.49 323.784 1283.49C317.46 1283.49 311.693 1281.37 306.496 1277.12V1288.57C311.175 1291.25 316.676 1292.6 323.006 1292.6C330.717 1292.6 336.807 1290.64 341.277 1286.75C345.353 1283.14 347.38 1278.62 347.38 1273.16C347.38 1268.22 345.76 1264.15 342.508 1260.94C340 1258.43 335.899 1255.99 330.217 1253.6" fill="white"/>
<path d="M403.567 1276.67C399.873 1281.22 394.528 1283.49 387.505 1283.49C380.741 1283.49 375.344 1281.25 371.319 1276.76C367.285 1272.28 365.269 1266.06 365.269 1258.08C365.269 1249.59 367.368 1243.02 371.579 1238.39C375.571 1234.05 380.871 1231.88 387.505 1231.88C394.224 1231.88 399.446 1234.03 403.172 1238.32C407.034 1242.78 408.958 1249.28 408.958 1257.82C408.958 1265.97 407.157 1272.25 403.567 1276.67V1276.67ZM388.283 1222.78C378.188 1222.78 370.121 1225.73 364.103 1231.62C357.605 1237.95 354.351 1246.91 354.351 1258.47C354.351 1268.61 357.21 1276.78 362.93 1282.98C368.781 1289.38 376.712 1292.6 386.722 1292.6C396.862 1292.6 404.928 1289.38 410.901 1282.98C416.888 1276.56 419.882 1268.04 419.882 1257.43C419.882 1246.64 417.102 1238.17 411.523 1232.02C405.957 1225.86 398.208 1222.78 388.283 1222.78" fill="white"/>
<path d="M483.297 1204.71C479.572 1205.92 476.015 1207.08 472.633 1208.16V1224.41H461.269V1224.41H445.667V1214.14C445.667 1204.73 449.392 1200.03 456.85 1200.03C459.495 1200.03 461.853 1200.62 463.933 1201.79V1192.17C462.073 1191.38 459.495 1191 456.202 1191C450.528 1191 445.727 1192.79 441.833 1196.39C437.285 1200.55 435.002 1206.3 435.002 1213.62V1224.41H423.691V1233.45H435.002V1290.97H445.667V1233.45H461.269V1233.44H472.633V1272.84C472.633 1285.92 478.444 1292.47 490.061 1292.47C494.221 1292.47 497.558 1291.75 500.071 1290.32V1281.22C498.122 1282.64 495.828 1283.36 493.171 1283.36C489.62 1283.36 487.086 1282.42 485.578 1280.53C484.062 1278.65 483.297 1275.48 483.297 1271.02V1233.44H500.071V1224.41H483.297V1204.71" fill="white"/>
<path d="M572.058 1239.81C566.487 1236.69 562.529 1234.21 560.183 1232.37C557.838 1230.52 556.166 1228.66 555.181 1226.78C554.196 1224.89 553.703 1222.39 553.703 1219.28C553.703 1214.98 555.357 1211.53 558.667 1208.92C561.984 1206.31 566.247 1205 571.462 1205C579.314 1205 585.698 1206.93 590.615 1210.79V1198.42C586.708 1196.19 580.526 1195.07 572.058 1195.07C563.242 1195.07 556.05 1197.41 550.476 1202.08C544.904 1206.75 542.119 1212.81 542.119 1220.26C542.119 1225.92 543.68 1230.72 546.797 1234.67C549.906 1238.62 555.343 1242.79 563.112 1247.17C571.138 1251.78 576.445 1255.49 579.03 1258.32C581.615 1261.15 582.911 1264.54 582.911 1268.49C582.911 1277.92 576.859 1282.63 564.756 1282.63C560.98 1282.63 556.918 1281.82 552.55 1280.2C548.183 1278.57 544.665 1276.56 541.989 1274.14V1287.24C543.829 1288.51 546.959 1289.72 551.365 1290.89C555.777 1292.05 559.729 1292.63 563.242 1292.63C572.888 1292.63 580.526 1290.37 586.138 1285.85C591.755 1281.34 594.561 1275.11 594.561 1267.17C594.561 1261.82 592.889 1257.08 589.559 1252.96C586.221 1248.84 580.391 1244.45 572.058 1239.81" fill="white"/>
<path d="M621.221 1203.69L610.426 1207.17V1223.62H598.854V1232.76H610.426V1272.63C610.426 1285.88 616.309 1292.5 628.062 1292.5C632.227 1292.5 635.611 1291.77 638.196 1290.33V1281.12C636.219 1282.57 633.899 1283.29 631.224 1283.29C627.621 1283.29 625.055 1282.33 623.526 1280.43C621.991 1278.52 621.221 1275.31 621.221 1270.79V1232.76H638.196V1223.62H621.221V1203.69Z" fill="white"/>
<path d="M695.389 1262.44C695.389 1268.66 693.719 1273.72 690.388 1277.6C687.051 1281.48 682.71 1283.42 677.359 1283.42C666.48 1283.42 661.046 1276.34 661.046 1262.17V1223.62H650.25V1263.88C650.25 1283.05 658.296 1292.63 674.398 1292.63C683.742 1292.63 690.653 1288.53 695.124 1280.33H695.389V1290.99H706.179V1223.62H695.389V1262.44Z" fill="white"/>
<path d="M771.297 1260.53C771.297 1267.19 769.385 1272.67 765.569 1276.97C761.751 1281.27 756.887 1283.42 750.965 1283.42C744.869 1283.42 740.022 1281.17 736.426 1276.68C732.831 1272.18 731.029 1266.08 731.029 1258.36C731.029 1249.85 732.934 1243.19 736.757 1238.39C740.572 1233.59 745.724 1231.19 752.215 1231.19C757.522 1231.19 762.025 1233.03 765.737 1236.71C769.443 1240.4 771.297 1245.02 771.297 1250.6V1260.53ZM771.297 1232.9H771.031C766.774 1225.62 760.042 1221.97 750.835 1221.97C741.447 1221.97 733.957 1225.36 728.365 1232.11C722.774 1238.86 719.976 1247.81 719.976 1258.95C719.976 1269.17 722.496 1277.34 727.543 1283.45C732.583 1289.58 739.36 1292.63 747.874 1292.63C758.312 1292.63 766.036 1288.27 771.031 1279.54H771.297V1290.99H782.084V1191.25H771.297V1232.9Z" fill="white"/>
<path d="M805.126 1250.86C806.053 1244.94 808.287 1240.18 811.838 1236.58C815.395 1232.98 819.67 1231.19 824.668 1231.19C829.979 1231.19 834.086 1232.91 837.002 1236.35C839.925 1239.79 841.427 1244.63 841.513 1250.86H805.126ZM824.802 1221.98C819.01 1221.98 813.743 1223.49 809.007 1226.52C804.27 1229.54 800.558 1233.81 797.855 1239.31C795.161 1244.82 793.813 1250.9 793.813 1257.57C793.813 1268.53 796.508 1277.12 801.905 1283.33C807.296 1289.53 814.798 1292.63 824.406 1292.63C834.146 1292.63 841.952 1290.46 847.828 1286.12V1276.05C841.557 1280.96 834.606 1283.42 826.972 1283.42C820.17 1283.42 814.857 1281.41 811.016 1277.4C807.179 1273.39 805.171 1267.59 804.996 1260H852.566V1254.34C852.566 1244.13 850.115 1236.18 845.231 1230.5C840.338 1224.81 833.531 1221.98 824.802 1221.98" fill="white"/>
<path d="M898.608 1221.98C888.91 1221.98 881.543 1226.26 876.495 1234.81H876.236V1223.62H865.442V1290.99H876.236V1252.57C876.236 1246.34 878.026 1241.22 881.596 1237.2C885.172 1233.19 889.615 1231.19 894.922 1231.19C905.36 1231.19 910.581 1238.32 910.581 1252.57V1290.99H921.371V1249.74C921.371 1240.88 919.427 1234.04 915.546 1229.21C911.663 1224.39 906.015 1221.98 898.608 1221.98" fill="white"/>
<path d="M950.991 1203.69L940.204 1207.17V1223.62H928.626V1232.76H940.204V1272.63C940.204 1285.88 946.082 1292.5 957.832 1292.5C962 1292.5 965.38 1291.77 967.967 1290.33V1281.12C965.998 1282.57 963.671 1283.29 960.995 1283.29C957.4 1283.29 954.827 1282.33 953.298 1280.43C951.763 1278.52 950.991 1275.31 950.991 1270.79V1232.76H967.967V1223.62H950.991V1203.69" fill="white"/>
<path d="M1047.38 1240.17C1043.34 1243.61 1037.53 1245.33 1029.95 1245.33H1018.37V1206.65H1031.33C1046.07 1206.65 1053.43 1212.9 1053.43 1225.4C1053.43 1231.8 1051.42 1236.72 1047.38 1240.17V1240.17ZM1056.69 1204.05C1051.14 1199.12 1043.32 1196.65 1033.24 1196.65H1007.31V1290.98H1018.37V1255.26H1030.8C1041.02 1255.26 1049.27 1252.47 1055.57 1246.87C1061.87 1241.28 1065.01 1233.93 1065.01 1224.8C1065.01 1215.9 1062.24 1208.98 1056.69 1204.05" fill="white"/>
<path d="M1106.84 1263.62C1106.84 1269.28 1105.1 1273.99 1101.62 1277.76C1098.12 1281.53 1093.7 1283.42 1088.35 1283.42C1084.58 1283.42 1081.49 1282.4 1079.07 1280.36C1076.66 1278.33 1075.46 1275.61 1075.46 1272.24C1075.46 1268.07 1076.58 1265.06 1078.82 1263.19C1081.05 1261.33 1084.96 1260 1090.53 1259.21L1106.84 1256.91V1263.62ZM1093.88 1221.98C1090.15 1221.98 1085.9 1222.67 1081.12 1224.05C1076.33 1225.43 1072.96 1226.87 1070.98 1228.36V1239.41C1077.52 1233.93 1084.85 1231.19 1092.96 1231.19C1102.22 1231.19 1106.84 1236.89 1106.84 1248.29L1086.64 1251.12C1071.82 1253.22 1064.4 1260.55 1064.4 1273.09C1064.4 1279.06 1066.36 1283.81 1070.26 1287.34C1074.16 1290.87 1079.36 1292.63 1085.85 1292.63C1094.97 1292.63 1101.89 1288.57 1106.58 1280.46H1106.84V1290.99H1117.63V1247.17C1117.63 1230.37 1109.71 1221.98 1093.88 1221.98" fill="white"/>
<path d="M1150.94 1226.48C1147.83 1229.18 1145.52 1232.86 1144.03 1237.5H1143.77V1223.62H1132.98V1290.99H1143.77V1256.65C1143.77 1249.45 1145.26 1243.61 1148.24 1239.12C1151.23 1234.62 1155.11 1232.37 1159.89 1232.37C1163.44 1232.37 1166.18 1233.1 1168.11 1234.54V1223.36C1166.62 1222.75 1164.47 1222.43 1161.67 1222.43C1157.63 1222.43 1154.05 1223.79 1150.94 1226.48" fill="white"/>
<path d="M1193.06 1203.69L1182.27 1207.17V1223.62H1170.7V1232.76H1182.27V1272.63C1182.27 1285.88 1188.15 1292.5 1199.9 1292.5C1204.07 1292.5 1207.45 1291.77 1210.04 1290.33V1281.12C1208.07 1282.57 1205.74 1283.29 1203.07 1283.29C1199.46 1283.29 1196.9 1282.33 1195.37 1280.43C1193.83 1278.52 1193.06 1275.31 1193.06 1270.79V1232.76H1210.04V1223.62H1193.06V1203.69Z" fill="white"/>
<path d="M1254.7 1221.98C1245 1221.98 1237.63 1226.26 1232.59 1234.81H1232.33V1223.62H1221.53V1290.99H1232.33V1252.57C1232.33 1246.34 1234.12 1241.22 1237.68 1237.2C1241.26 1233.19 1245.71 1231.19 1251.01 1231.19C1261.45 1231.19 1266.67 1238.32 1266.67 1252.57V1290.99H1277.46V1249.74C1277.46 1240.88 1275.52 1234.04 1271.63 1229.21C1267.75 1224.39 1262.1 1221.98 1254.7 1221.98" fill="white"/>
<path d="M1298.98 1250.86C1299.91 1244.94 1302.14 1240.18 1305.69 1236.58C1309.25 1232.98 1313.53 1231.19 1318.52 1231.19C1323.84 1231.19 1327.94 1232.91 1330.86 1236.35C1333.78 1239.79 1335.29 1244.63 1335.37 1250.86H1298.98ZM1318.66 1221.98C1312.87 1221.98 1307.61 1223.49 1302.87 1226.52C1298.13 1229.54 1294.41 1233.81 1291.71 1239.31C1289.02 1244.82 1287.67 1250.9 1287.67 1257.57C1287.67 1268.53 1290.37 1277.12 1295.76 1283.33C1301.15 1289.53 1308.66 1292.63 1318.26 1292.63C1328 1292.63 1335.81 1290.46 1341.69 1286.12V1276.05C1335.42 1280.96 1328.46 1283.42 1320.83 1283.42C1314.03 1283.42 1308.71 1281.41 1304.87 1277.4C1301.04 1273.39 1299.03 1267.59 1298.85 1260H1346.42V1254.34C1346.42 1244.13 1343.97 1236.18 1339.09 1230.5C1334.2 1224.81 1327.39 1221.98 1318.66 1221.98" fill="white"/>
<path d="M1377.26 1226.48C1374.15 1229.18 1371.85 1232.86 1370.35 1237.5H1370.09V1223.62H1359.3V1290.99H1370.09V1256.65C1370.09 1249.45 1371.58 1243.61 1374.57 1239.12C1377.55 1234.62 1381.44 1232.37 1386.22 1232.37C1389.77 1232.37 1392.5 1233.1 1394.44 1234.54V1223.36C1392.94 1222.75 1390.8 1222.43 1388 1222.43C1383.95 1222.43 1380.39 1223.79 1377.26 1226.48" fill="white"/>
<path d="M1434.1 1261.66C1431.52 1258.67 1427 1255.82 1420.59 1253.09C1415.35 1250.89 1411.9 1248.99 1410.23 1247.38C1408.56 1245.78 1407.73 1243.48 1407.73 1240.49C1407.73 1237.72 1408.82 1235.46 1410.99 1233.7C1413.17 1231.94 1416.05 1231.06 1419.61 1231.06C1425.41 1231.06 1430.51 1232.67 1434.91 1235.88V1224.99C1430.59 1222.88 1425.77 1221.83 1420.45 1221.83C1413.56 1221.83 1407.87 1223.7 1403.38 1227.44C1398.89 1231.17 1396.65 1235.83 1396.65 1241.42C1396.65 1246.25 1397.88 1250.13 1400.34 1253.06C1402.81 1255.98 1407.02 1258.71 1413.01 1261.27C1418.95 1263.99 1422.75 1266.16 1424.42 1267.76C1426.09 1269.37 1426.92 1271.44 1426.92 1273.99C1426.92 1280.29 1422.64 1283.43 1414.06 1283.43C1407.69 1283.43 1401.84 1281.27 1396.52 1276.96V1288.57C1401.3 1291.29 1406.89 1292.66 1413.27 1292.66C1420.74 1292.66 1426.74 1290.83 1431.24 1287.18C1435.75 1283.54 1438 1278.79 1438 1272.94C1438 1268.41 1436.72 1264.65 1434.1 1261.66" fill="white"/>
<path d="M501.767 115.052C506.56 115.052 508.968 112.399 508.968 107.077V104.601H522.046V209.131H508.968V125.505H501.767V115.052Z" fill="white"/>
<path d="M606.022 121.063C606.022 117.064 603.84 115.052 599.477 115.052C595.126 115.052 592.945 117.064 592.945 121.063V192.679C592.945 196.679 595.126 198.691 599.477 198.691C603.84 198.691 606.022 196.679 606.022 192.679V121.063ZM619.112 186.143C619.112 201.475 612.579 209.13 599.477 209.13C586.399 209.13 579.866 201.475 579.866 186.143V127.599C579.866 112.267 586.399 104.6 599.477 104.6C612.579 104.6 619.112 112.267 619.112 127.599V186.143" fill="white"/>
<path d="M430.878 121.063C430.878 117.064 428.696 115.052 424.333 115.052C419.982 115.052 417.801 117.064 417.801 121.063V192.679C417.801 196.679 419.982 198.691 424.333 198.691C428.696 198.691 430.878 196.679 430.878 192.679V121.063ZM443.968 186.143C443.968 201.475 437.423 209.13 424.333 209.13C411.256 209.13 404.722 201.475 404.722 186.143V127.599C404.722 112.267 411.256 104.6 424.333 104.6C437.423 104.6 443.968 112.267 443.968 127.599V186.143" fill="white"/>
<path d="M693.606 121.063C693.606 117.064 691.412 115.052 687.049 115.052C682.698 115.052 680.517 117.064 680.517 121.063V192.679C680.517 196.679 682.698 198.691 687.049 198.691C691.412 198.691 693.606 196.679 693.606 192.679V121.063ZM706.684 186.143C706.684 201.475 700.151 209.13 687.049 209.13C673.983 209.13 667.438 201.475 667.438 186.143V127.599C667.438 112.267 673.983 104.6 687.049 104.6C700.151 104.6 706.684 112.267 706.684 127.599V186.143" fill="white"/>
<path d="M764.483 115.052C769.275 115.052 771.683 112.399 771.683 107.077V104.601H784.773V209.131H771.683V125.505H764.483V115.052Z" fill="white"/>
<path d="M852.055 115.052C856.859 115.052 859.256 112.399 859.256 107.077V104.601H872.345V209.131H859.256V125.505H852.055V115.052Z" fill="white"/>
<path d="M956.322 121.063C956.322 117.064 954.128 115.052 949.777 115.052C945.413 115.052 943.232 117.064 943.232 121.063V192.679C943.232 196.679 945.413 198.691 949.777 198.691C954.128 198.691 956.322 196.679 956.322 192.679V121.063ZM969.399 186.143C969.399 201.475 962.867 209.13 949.777 209.13C936.699 209.13 930.154 201.475 930.154 186.143V127.599C930.154 112.267 936.699 104.6 949.777 104.6C962.867 104.6 969.399 112.267 969.399 127.599V186.143" fill="white"/>
<path d="M1027.21 115.052C1032 115.052 1034.41 112.399 1034.41 107.077V104.601H1047.49V209.131H1034.41V125.505H1027.21V115.052Z" fill="white"/>
<path d="M503.595 270.61C508.387 270.61 510.795 267.954 510.795 262.633V260.157H523.874V364.675H510.795V281.061H503.595V270.61Z" fill="white"/>
<path d="M607.547 276.619C607.547 272.619 605.354 270.607 601.002 270.607C596.638 270.607 594.458 272.619 594.458 276.619V348.222C594.458 352.234 596.638 354.234 601.002 354.234C605.354 354.234 607.547 352.234 607.547 348.222V276.619ZM620.637 341.687C620.637 357.031 614.092 364.685 601.002 364.685C587.924 364.685 581.379 357.031 581.379 341.687V283.155C581.379 267.822 587.924 260.156 601.002 260.156C614.092 260.156 620.637 267.822 620.637 283.155V341.687Z" fill="white"/>
<path d="M433.009 276.619C433.009 272.619 430.827 270.607 426.464 270.607C422.101 270.607 419.919 272.619 419.919 276.619V348.222C419.919 352.234 422.101 354.234 426.464 354.234C430.827 354.234 433.009 352.234 433.009 348.222V276.619ZM446.098 341.687C446.098 357.032 439.553 364.674 426.464 364.674C413.387 364.674 406.841 357.032 406.841 341.687V283.155C406.841 267.822 413.387 260.156 426.464 260.156C439.553 260.156 446.098 267.822 446.098 283.155V341.687Z" fill="white"/>
<path d="M678.133 270.61C682.925 270.61 685.334 267.954 685.334 262.633V260.157H698.411V364.675H685.334V281.061H678.133V270.61Z" fill="white"/>
<path d="M782.085 276.619C782.085 272.619 779.891 270.607 775.54 270.607C771.176 270.607 768.995 272.619 768.995 276.619V348.222C768.995 352.234 771.176 354.234 775.54 354.234C779.891 354.234 782.085 352.234 782.085 348.222V276.619ZM795.175 341.687C795.175 357.031 788.63 364.685 775.54 364.685C762.462 364.685 755.917 357.031 755.917 341.687V283.155C755.917 267.822 762.462 260.156 775.54 260.156C788.63 260.156 795.175 267.822 795.175 283.155V341.687Z" fill="white"/>
<path d="M869.355 276.619C869.355 272.619 867.16 270.607 862.809 270.607C858.446 270.607 856.264 272.619 856.264 276.619V348.222C856.264 352.234 858.446 354.234 862.809 354.234C867.16 354.234 869.355 352.234 869.355 348.222V276.619ZM882.432 341.687C882.432 357.031 875.899 364.685 862.809 364.685C849.731 364.685 843.186 357.031 843.186 341.687V283.155C843.186 267.822 849.731 260.156 862.809 260.156C875.899 260.156 882.432 267.822 882.432 283.155V341.687Z" fill="white"/>
<path d="M939.94 270.61C944.733 270.61 947.141 267.954 947.141 262.633V260.157H960.219V364.675H947.141V281.061H939.94V270.61Z" fill="white"/>
<path d="M1027.21 270.61C1032 270.61 1034.41 267.954 1034.41 262.633V260.157H1047.49V364.675H1034.41V281.061H1027.21V270.61Z" fill="white"/>
<path d="M503.595 426.165C508.387 426.165 510.795 423.498 510.795 418.189V415.713H523.874V520.231H510.795V436.616H503.595V426.165" fill="white"/>
<path d="M433.009 432.175C433.009 428.175 430.827 426.164 426.464 426.164C422.112 426.164 419.931 428.175 419.931 432.175V503.779C419.931 507.79 422.112 509.79 426.464 509.79C430.827 509.79 433.009 507.79 433.009 503.779V432.175ZM446.098 497.243C446.098 512.575 439.553 520.23 426.464 520.23C413.387 520.23 406.841 512.575 406.841 497.243V438.711C406.841 423.378 413.387 415.711 426.464 415.711C439.553 415.711 446.098 423.378 446.098 438.711V497.243ZM607.552 432.175C607.552 428.175 605.37 426.164 601.007 426.164C596.644 426.164 594.462 428.175 594.462 432.175V503.779C594.462 507.79 596.644 509.79 601.007 509.79C605.37 509.79 607.552 507.79 607.552 503.779V432.175ZM620.63 497.243C620.63 512.575 614.085 520.23 601.007 520.23C587.917 520.23 581.372 512.575 581.372 497.243V438.711C581.372 423.378 587.917 415.711 601.007 415.711C614.085 415.711 620.63 423.378 620.63 438.711V497.243Z" fill="white"/>
<path d="M678.448 426.165C683.24 426.165 685.649 423.498 685.649 418.189V415.713H698.726V520.231H685.649V436.616H678.448V426.165" fill="white"/>
<path d="M782.319 432.175C782.319 428.175 780.137 426.164 775.774 426.164C771.411 426.164 769.229 428.175 769.229 432.175V503.779C769.229 507.79 771.411 509.79 775.774 509.79C780.137 509.79 782.319 507.79 782.319 503.779V432.175ZM795.409 497.243C795.409 512.575 788.863 520.23 775.774 520.23C762.695 520.23 756.15 512.575 756.15 497.243V438.711C756.15 423.378 762.695 415.711 775.774 415.711C788.863 415.711 795.409 423.378 795.409 438.711V497.243Z" fill="white"/>
<path d="M869.506 432.175C869.506 428.175 867.324 426.164 862.961 426.164C858.61 426.164 856.428 428.175 856.428 432.175V503.779C856.428 507.79 858.61 509.79 862.961 509.79C867.324 509.79 869.506 507.79 869.506 503.779V432.175ZM882.596 497.243C882.596 512.575 876.051 520.23 862.961 520.23C849.883 520.23 843.338 512.575 843.338 497.243V438.711C843.338 423.378 849.883 415.711 862.961 415.711C876.051 415.711 882.596 423.378 882.596 438.711V497.243Z" fill="white"/>
<path d="M956.693 432.175C956.693 428.175 954.512 426.164 950.149 426.164C945.797 426.164 943.616 428.175 943.616 432.175V503.779C943.616 507.79 945.797 509.79 950.149 509.79C954.512 509.79 956.693 507.79 956.693 503.779V432.175ZM969.783 497.243C969.783 512.575 963.251 520.23 950.149 520.23C937.071 520.23 930.538 512.575 930.538 497.243V438.711C930.538 423.378 937.071 415.711 950.149 415.711C963.251 415.711 969.783 423.378 969.783 438.711V497.243Z" fill="white"/>
<path d="M1043.89 432.175C1043.89 428.175 1041.7 426.164 1037.35 426.164C1032.98 426.164 1030.8 428.175 1030.8 432.175V503.779C1030.8 507.79 1032.98 509.79 1037.35 509.79C1041.7 509.79 1043.89 507.79 1043.89 503.779V432.175ZM1056.97 497.243C1056.97 512.575 1050.44 520.23 1037.35 520.23C1024.27 520.23 1017.73 512.575 1017.73 497.243V438.711C1017.73 423.378 1024.27 415.711 1037.35 415.711C1050.44 415.711 1056.97 423.378 1056.97 438.711V497.243Z" fill="white"/>
<path d="M545.702 659.22C540.122 655.613 532.921 654.637 524.171 656.41C520.762 657.113 517.353 657.815 513.943 658.565C517.77 676.303 521.62 694.051 525.447 711.8C528.594 711.134 531.742 710.468 534.9 709.813C543.138 708.134 549.088 704.515 552.83 698.801C556.551 693.1 557.718 685.945 556.216 677.314C554.75 668.898 551.269 662.839 545.702 659.22" fill="white"/>
<path d="M451.865 680.851C446.584 677.172 440.444 676.374 433.577 678.469C426.663 680.589 421.954 684.839 419.522 691.136C417.09 697.433 417.245 704.54 419.892 712.444C421.656 717.754 424.124 722.134 427.247 725.635C430.359 729.134 433.875 731.467 437.774 732.645C441.673 733.835 445.618 733.824 449.647 732.586C456.193 730.575 460.687 726.73 463.191 720.955C465.706 715.17 465.825 708.051 463.441 699.54C460.986 690.767 457.159 684.517 451.865 680.851" fill="white"/>
<path d="M1091.96 710.681C1089.23 717.288 1086.48 723.919 1083.75 730.538C1091.88 733.906 1099.99 737.383 1108.06 740.989L1103.62 750.893C1095.64 747.323 1087.63 743.881 1079.57 740.56C1076.76 747.382 1073.94 754.191 1071.11 761C1080.09 764.714 1089.02 768.571 1097.9 772.584C1096.4 775.892 1094.91 779.201 1093.4 782.523C1080.96 776.904 1068.44 771.595 1055.82 766.572C1065.24 742.953 1074.66 719.336 1084.09 695.718C1097.22 700.932 1110.25 706.444 1123.18 712.265L1118.71 722.192C1109.84 718.216 1100.93 714.373 1091.96 710.681V710.681ZM1048.68 693.971C1039.58 690.72 1030.47 687.602 1021.32 684.613C1018.98 691.768 1016.65 698.911 1014.31 706.065C1022.58 708.756 1030.84 711.577 1039.05 714.506C1037.83 717.922 1036.61 721.338 1035.39 724.766C1027.27 721.874 1019.1 719.088 1010.92 716.434C1007.63 726.54 1004.32 736.658 1001.03 746.789C997.238 745.539 993.459 744.348 989.68 743.171C997.238 718.885 1004.82 694.613 1012.39 670.341C1025.78 674.495 1039.12 678.96 1052.36 683.709C1051.13 687.138 1049.89 690.554 1048.68 693.971V693.971ZM954.716 733.056C950.901 732.02 947.063 731.032 943.236 730.056C949.495 705.415 955.777 680.761 962.047 656.132C966.208 657.18 970.345 658.275 974.494 659.382C967.901 683.928 961.321 708.486 954.716 733.056V733.056ZM915.788 723.529C902.843 720.685 889.86 718.101 876.829 715.816L890.062 640.689C894.27 641.427 898.467 642.2 902.675 642.999C898.61 664.413 894.556 685.806 890.491 707.221C899.731 708.971 908.945 710.863 918.149 712.899C917.35 716.447 916.575 719.994 915.788 723.529ZM807.154 644.738C805.306 642.893 802.946 641.368 800.073 640.154C797.211 638.929 794.278 638.202 791.275 637.988C787.471 637.702 784.42 638.392 782.059 640.011C779.698 641.643 778.447 643.88 778.279 646.702C778.148 648.678 778.424 650.416 779.055 651.88C779.698 653.332 780.759 654.749 782.249 656.118C783.716 657.51 786.434 659.427 790.333 661.926C796.615 665.915 800.979 669.83 803.47 673.593C805.962 677.354 806.975 681.509 806.546 686.033C805.913 692.711 803.16 697.711 798.356 701.127C793.575 704.543 787.244 705.936 779.293 705.401C776.324 705.199 773.202 704.556 769.887 703.448C766.573 702.342 764.153 701.186 762.615 699.985C762.841 695.377 763.068 690.758 763.283 686.164C765.298 688.354 767.991 690.259 771.342 691.914C774.692 693.556 778.005 694.497 781.296 694.711C784.98 694.961 787.889 694.366 789.987 692.914C792.097 691.45 793.289 689.211 793.528 686.128C793.742 683.473 792.944 680.973 791.119 678.628C789.295 676.284 785.695 673.343 780.259 669.867C774.918 666.486 770.948 663.034 768.397 659.439C765.846 655.844 764.653 651.677 764.88 646.94C765.07 642.869 766.299 639.261 768.588 636.13C770.876 632.989 774.072 630.619 778.172 629.036C782.274 627.452 786.887 626.833 791.954 627.215C795.281 627.452 798.522 628.023 801.682 628.928C804.84 629.833 807.058 630.702 808.346 631.5C807.953 635.904 807.547 640.321 807.154 644.738V644.738ZM729.949 702.146C726.014 702.11 722.092 702.087 718.17 702.087C718.134 676.66 718.099 651.244 718.075 625.817C722.331 625.805 726.587 625.829 730.843 625.888C730.545 651.292 730.258 676.731 729.949 702.146ZM607.17 709.143C603.919 683.906 600.68 658.682 597.428 633.458C611.57 631.719 625.748 630.291 639.939 629.147C640.244 632.767 640.537 636.398 640.855 640.015C631.126 640.802 621.409 641.719 611.704 642.789C612.523 649.896 613.342 657.016 614.161 664.146C622.986 663.181 631.822 662.324 640.647 661.598C640.965 665.205 641.283 668.801 641.589 672.42C632.861 673.134 624.123 673.967 615.408 674.919C616.251 682.252 617.094 689.585 617.938 696.918C627.667 695.847 637.409 694.942 647.15 694.168C647.444 697.799 647.749 701.418 648.054 705.036C634.401 706.107 620.773 707.477 607.17 709.143V709.143ZM567.53 695.992C565.324 702.361 561.581 707.646 556.324 711.872C551.067 716.098 544.724 718.943 537.178 720.478C530.167 721.92 523.182 723.431 516.184 725.038C510.497 700.254 504.811 675.47 499.113 650.684C506.886 648.9 514.67 647.22 522.466 645.638C535.998 642.875 546.774 644.196 554.56 649.268C562.355 654.327 567.124 662.945 569.044 674.957C570.284 682.624 569.747 689.635 567.53 695.992ZM477.019 716.528C475.815 723.158 473.097 728.765 468.877 733.42C464.669 738.062 459.304 741.36 452.76 743.371C446.453 745.3 440.36 745.562 434.4 744.145C428.451 742.717 423.158 739.728 418.485 735.145C413.835 730.55 410.235 724.73 407.755 717.635C405.11 710.076 404.179 702.885 405.073 696.101C405.955 689.315 408.602 683.422 413.049 678.458C417.495 673.482 423.432 669.827 430.8 667.578C437.583 665.518 444.105 665.257 450.28 666.828C456.443 668.399 461.748 671.637 466.195 676.541C470.642 681.435 473.813 687.6 475.768 694.957C477.843 702.719 478.223 709.897 477.019 716.528V716.528ZM387.663 764.759C384.504 766.877 381.154 768.639 377.625 770.079C371.152 772.71 364.917 773.627 358.789 772.841C352.673 772.044 347.153 769.627 342.194 765.52C337.235 761.425 333.194 755.985 330.118 749.164C326.852 741.962 325.457 734.796 326.052 727.664C326.649 720.523 329.14 714.118 333.564 708.511C337.973 702.916 343.768 698.643 350.885 695.786C353.925 694.571 357.179 693.56 360.66 692.774C364.154 691.989 367.182 691.643 369.745 691.774C371.283 695.786 372.809 699.809 374.335 703.809C368.076 702.773 361.746 703.512 355.427 706.047C350.515 708.023 346.582 710.941 343.673 714.737C340.752 718.523 339.154 722.891 338.809 727.795C338.487 732.712 339.512 737.819 341.825 743.164C345.21 750.902 349.955 756.116 355.988 758.914C362.032 761.698 368.409 761.687 375.229 758.937C381.881 756.259 387.031 752.33 390.81 747.081C392.229 750.818 393.648 754.568 395.078 758.306C393.29 760.508 390.822 762.651 387.663 764.759V764.759ZM718.909 593.889C540.875 593.889 378.172 635.825 260 712.07L319.207 833.553C415.594 772.845 564.184 736.764 718.909 736.764C873.633 736.764 1022.23 772.85 1118.61 833.553L1177.82 712.077C1059.64 635.822 896.942 593.889 718.909 593.889" fill="white"/>
<path d="M752.7 824.082L718.903 857.841L685.106 824.082H666.592L718.903 876.328L771.227 824.082H752.7Z" fill="white"/>
<path d="M666.595 937.356H685.109L718.907 903.608L752.705 937.356H771.219L718.907 885.12L666.595 937.356Z" fill="white"/>
<path d="M729.557 824.092C729.557 818.223 724.788 813.45 718.899 813.45C713.021 813.45 708.265 818.223 708.265 824.092C708.265 829.961 713.021 834.722 718.899 834.722C724.788 834.722 729.557 829.961 729.557 824.092Z" fill="white"/>
<path d="M1030.57 829.347C962.395 911.669 857.935 970.795 718.915 1005.54C579.89 970.795 475.414 911.677 407.235 829.351C395.353 834.279 383.947 839.503 373.047 845.002C447.444 939.145 563.516 1005.66 718.916 1043.04C874.314 1005.66 990.388 939.15 1064.79 845.009C1053.88 839.506 1042.46 834.278 1030.57 829.347Z" fill="white"/>
<path d="M319.23 638.205C319.227 638.193 319.225 638.182 319.223 638.169C308.926 586.147 306.836 535.056 306.836 488.259V36.4151H1130.99V488.259C1130.99 535.066 1128.88 586.17 1118.58 638.203C1130.1 643.55 1141.38 649.131 1152.35 654.976C1164.92 596.864 1167.41 540.024 1167.41 488.259V3.54837e-05H270.421V488.259C270.421 540.023 272.905 596.862 285.471 654.972C296.442 649.13 307.713 643.551 319.23 638.205" fill="white"/>
</svg>
