<svg viewBox="0 0 788 288" fill="none" xmlns="http://www.w3.org/2000/svg">
<path d="M124 198.753C51.6873 197.45 30.046 222.162 0 277.753V287.253H754C789.344 222.426 806.514 186.08 754 121.253L726.5 131.253L726.503 131.248C752.105 96.8341 754.541 93.5598 726.5 84.2525C736.351 -3.78645 704.5 -12.6729 610.5 11.7525C552.482 3.19108 524.032 9.69553 485 53.7525C462.825 103.961 446.617 106.07 414 84.2525C392.293 90.8941 380.222 88.1718 359 63.2525C349.78 40.7826 325.5 37.7525 303 53.7525C280.5 69.7525 270.034 71.0244 270.5 95.7525C276.427 121.315 269.464 127.782 246.5 131.253C221.039 138.498 210.876 147.552 196.5 168.253C177.655 197.841 159.392 200.059 124 198.753Z" fill="url(#paint0_linear)"/>
<defs>
<linearGradient id="paint0_linear" x1="393.628" y1="0" x2="393.628" y2="287.253" gradientUnits="userSpaceOnUse">
<stop stop-color="#6782FB"/>
<stop offset="1" stop-color="#6782FB" stop-opacity="0"/>
</linearGradient>
</defs>
</svg>
