<?xml version="1.0" encoding="utf-8"?>
<!-- Svg Vector Icons : http://www.onlinewebfonts.com/icon -->
<!DOCTYPE svg PUBLIC "-//W3C//DTD SVG 1.1//EN" "http://www.w3.org/Graphics/SVG/1.1/DTD/svg11.dtd">
<svg version="1.1" xmlns="http://www.w3.org/2000/svg" xmlns:xlink="http://www.w3.org/1999/xlink" x="0px" y="0px" viewBox="0 0 1000 1000" enable-background="new 0 0 1000 1000" xml:space="preserve">
<metadata> Svg Vector Icons : http://www.onlinewebfonts.com/icon </metadata>
<g><path d="M926.4,623.9h25.8v25.8h-25.8V623.9z"/><path d="M466.1,727.2L466.1,727.2L466.1,727.2z"/><path d="M939.3,421.7c-8.6,0-12.9,4.3-12.9,12.9l0,0v443.2c0,25.8-30.1,68.8-68.8,68.8H104.7c-34.4,0-68.8-30.1-68.8-68.8V150.6c0-34.4,30.1-68.8,68.8-68.8h486.2l0,0l0,0c8.6,0,12.9-4.3,12.9-12.9c0-8.6-4.3-12.9-12.9-12.9l0,0l0,0H104.7C53,56,10,99,10,150.6v727.1c0,51.6,43,94.7,94.7,94.7h752.9c51.6,0,94.7-43,94.7-94.7V434.6l0,0C952.2,426,943.6,421.7,939.3,421.7z"/><path d="M806,47.4L332.7,520.6l-47.3,185v8.6c0,8.6,4.3,12.9,8.6,17.2c4.3,0,8.6,0,8.6,0l193.6-51.6l473.3-469c30.1-30.1,25.8-77.4-4.3-107.6l-43-43C879.1,21.6,831.8,17.3,806,47.4z M311.2,692.7l43-154.9L470.4,654L311.2,692.7z M874.8,253.9L491.9,636.8L371.4,516.3l382.9-382.9L874.8,253.9z M939.3,111.9c17.2,17.2,21.5,55.9,4.3,68.8L892,232.4L771.5,111.9l51.6-51.6c21.5-21.5,51.6-12.9,68.8,4.3L939.3,111.9z"/></g>
</svg>